<?xml version="1.0" encoding="UTF-8" standalone="no"?>
<!-- Created with Inkscape (http://www.inkscape.org/) -->

<svg
   xmlns:dc="http://purl.org/dc/elements/1.1/"
   xmlns:cc="http://creativecommons.org/ns#"
   xmlns:rdf="http://www.w3.org/1999/02/22-rdf-syntax-ns#"
   xmlns:svg="http://www.w3.org/2000/svg"
   xmlns="http://www.w3.org/2000/svg"
   xmlns:sodipodi="http://sodipodi.sourceforge.net/DTD/sodipodi-0.dtd"
   xmlns:inkscape="http://www.inkscape.org/namespaces/inkscape"
   version="1.1"
   id="svg2"
   xml:space="preserve"
   width="1599.9867"
   height="1599.9867"
   viewBox="0 0 1599.9867 1599.9867"
   sodipodi:docname="mafia-seeklogo.com.svg"
   inkscape:export-filename="/home/vigo/github-projects/mafia/mafia-client/public/images/mafia-seeklogo.com.ai.png"
   inkscape:export-xdpi="96"
   inkscape:export-ydpi="96"
   inkscape:version="0.92.4 5da689c313, 2019-01-14"><metadata
     id="metadata8"><rdf:RDF><cc:Work
         rdf:about=""><dc:format>image/svg+xml</dc:format><dc:type
           rdf:resource="http://purl.org/dc/dcmitype/StillImage" /><dc:title></dc:title></cc:Work></rdf:RDF></metadata><defs
     id="defs6"><clipPath
       clipPathUnits="userSpaceOnUse"
       id="clipPath32"><path
         d="M 0,1199.991 H 1199.99 V 0 H 0 Z"
         id="path30"
         inkscape:connector-curvature="0" /></clipPath></defs><sodipodi:namedview
     pagecolor="#ffffff"
     bordercolor="#666666"
     borderopacity="1"
     objecttolerance="10"
     gridtolerance="10"
     guidetolerance="10"
     inkscape:pageopacity="0"
     inkscape:pageshadow="2"
     inkscape:window-width="1697"
     inkscape:window-height="1226"
     id="namedview4"
     showgrid="false"
     inkscape:zoom="0.14750123"
     inkscape:cx="799.99335"
     inkscape:cy="799.99335"
     inkscape:window-x="938"
     inkscape:window-y="682"
     inkscape:window-maximized="0"
     inkscape:current-layer="g10" /><g
     id="g10"
     inkscape:groupmode="layer"
     inkscape:label="mafia-seeklogo.com"
     transform="matrix(1.3333333,0,0,-1.3333333,0,1599.9867)"><path
       d="M 0,0 H 1199.99 V 1199.991 H 0 Z"
       style="fill:#ffffff;fill-opacity:1;fill-rule:nonzero;stroke:none"
       id="path12"
       inkscape:connector-curvature="0" /><g
       id="g14"
       transform="translate(599.9941,897.377)"><path
         d="m 0,0 255.517,-152.846 v -368.152 h -511.033 v 368.152 z"
         style="fill:#00000f;fill-opacity:1;fill-rule:evenodd;stroke:none"
         id="path16"
         inkscape:connector-curvature="0" /></g><g
       id="g18"
       transform="translate(599.9941,885.4624)"><path
         d="m 0,0 245.292,-146.73 v -276.799 -16.024 -59.306 h -490.583 v 59.306 16.024 276.799 z"
         style="fill:#ffffff;fill-opacity:1;fill-rule:evenodd;stroke:none"
         id="path20"
         inkscape:connector-curvature="0" /></g><g
       id="g22"
       transform="translate(599.9941,873.5479)"><path
         d="m 0,0 117.533,-70.307 117.533,-70.307 v -140.613 -140.614 l -56.947,-34.064 h -356.237 l -56.948,34.064 v 140.614 140.613 l 117.533,70.307 z"
         style="fill:#00000f;fill-opacity:1;fill-rule:evenodd;stroke:none"
         id="path24"
         inkscape:connector-curvature="0" /></g><g
       id="g26"><g
         id="g28"
         clip-path="url(#clipPath32)"><g
           id="g34"
           transform="translate(527.7236,864.7197)"><path
             d="m 0,0 c -4.485,25.979 -11.59,78.572 21.324,87.969 6.505,1.857 14.647,2.092 21.375,1.474 3.038,-0.278 6.059,-0.757 9.03,-1.449 8.612,8.782 19.678,15.875 32.457,14.742 14.704,-1.304 25.726,-12.934 33.285,-24.648 l 0.462,-0.715 0.35,-0.776 c 4.769,-10.545 9.476,-21.123 13.802,-31.859 l 2.019,-5.007 3.078,-4.837 c 0.372,-0.587 0.719,-1.188 1.04,-1.801 7.271,1.106 14.677,1.922 21.967,1.896 8.83,-0.033 19.326,-1.708 23.004,-11.058 0.688,-1.748 1.031,-3.606 1.029,-5.483 l -0.009,-6.39 -5.439,-3.356 C 168.13,2.137 156.669,-2.855 144.726,-6.449 c 1.158,-0.671 2.245,-1.482 3.245,-2.445 2.008,-1.933 3.383,-4.188 4.252,-6.629 9.568,1.679 21.575,0.094 30.316,-1.699 0.158,0.224 0.305,0.462 0.442,0.714 2.087,3.831 1.914,11.708 2.346,16.12 l 2.056,20.971 10.828,-18.076 c 4.898,-8.175 11.123,-18.212 9.619,-28.149 -1.664,-10.994 -11.685,-17.094 -21.16,-20.883 l -0.124,-0.048 c -0.775,-0.293 -3.647,-1.328 -3.947,-2.31 -0.658,-2.139 -0.783,-3.904 -1.737,-6.137 -1.34,-3.136 -3.449,-5.687 -5.966,-7.871 -0.118,-0.518 -0.245,-1.034 -0.38,-1.548 -2.819,-10.648 -9.646,-20.777 -19.71,-25.733 -6.997,-3.447 -14.628,-3.926 -22.091,-1.757 -0.456,0.133 -0.91,0.27 -1.363,0.41 -0.001,-0.05 -0.002,-0.102 -0.002,-0.152 9.13,-6.166 17.663,-13.27 25.724,-20.765 25.066,-8.392 81.514,-27.739 92.83,-50.636 l 0.604,-1.22 0.299,-1.326 c 3.86,-17.101 4.834,-35.017 0.036,-52.014 4.009,-23.975 7.301,-48.122 8.852,-72.389 1.113,-17.383 1.446,-35.218 -0.685,-52.554 9.104,-21.93 15.064,-45.465 14.764,-69.316 0.396,-1.316 0.771,-2.638 1.13,-3.965 l 3.922,-14.468 h -9.089 -398.092 -8.133 l 2.086,13.251 c 4.232,26.883 7.359,53.922 11.067,80.878 1.645,11.953 3.399,23.894 5.612,35.757 1.73,9.275 3.714,18.543 6.462,27.578 -0.999,9.536 -1.345,19.138 -1.272,28.723 0.14,18.34 1.776,36.719 4.477,54.854 1.636,10.974 3.457,22.378 6.593,33.056 -0.074,8.062 6.438,12.791 13.174,15.698 6.581,2.841 13.743,4.669 20.711,6.323 22.42,6.926 64.692,20.872 81.197,37.387 2.612,3.472 5.609,6.639 9.033,9.281 -3.302,5.659 -5.142,12.621 -6.258,19.145 -0.144,0.054 -0.286,0.11 -0.428,0.168 -8.641,3.514 -12.388,12.13 -14.02,20.721 -14.401,-0.497 -35.35,0.602 -40.528,14.824 -1.333,3.659 -1.337,7.529 -0.305,11.26 l 1.354,4.889 4.527,2.287 c 10.333,5.219 21.948,8.987 33.264,12.224 l -0.397,1.996 z"
             style="fill:#00000f;fill-opacity:1;fill-rule:evenodd;stroke:none"
             id="path36"
             inkscape:connector-curvature="0" /></g><g
           id="g38"
           transform="translate(712.2324,839.9507)"><path
             d="M 0,0 C 7.922,5.087 6.923,15.381 7.738,23.703 17.115,8.05 24.711,-5.249 -0.421,-15.3 c -13.872,-5.242 -3.6,-10.229 -15.52,-18.979 -2.686,-16.346 -16.122,-31.376 -33.913,-26.204 -3.678,1.07 -7.185,2.378 -10.534,3.327 0.256,-4.46 0.414,-9.231 0.122,-13.395 10.443,-6.673 20.18,-14.769 29.19,-23.229 21.398,-7.154 80.066,-26.962 90.239,-47.603 l 0.236,-0.478 0.117,-0.519 c 3.728,-16.448 4.662,-33.778 -0.304,-50.059 4.079,-24.192 7.469,-48.769 9.036,-73.256 1.112,-17.377 1.435,-35.753 -0.881,-53.08 9.281,-21.871 15.426,-45.44 14.929,-69.327 0.493,-1.593 0.953,-3.195 1.39,-4.805 l 1.543,-5.695 h -398.093 l 0.821,5.217 c 4.241,26.936 7.373,54.004 11.088,81.01 1.628,11.835 3.368,23.687 5.559,35.432 1.757,9.429 3.815,19.006 6.693,28.172 -1.088,9.727 -1.461,19.568 -1.386,29.349 0.137,17.953 1.757,36.128 4.402,53.883 1.572,10.554 3.575,22.918 6.73,33.269 -0.026,0.193 -0.045,0.388 -0.054,0.583 -0.226,5.019 5.04,7.848 8.968,9.543 6.116,2.64 13.304,4.458 19.787,5.995 23.309,7.194 67.208,21.709 84.651,39.556 3.208,4.341 7.079,8.167 11.754,10.828 -0.001,1.144 0.047,2.286 0.139,3.427 -5.044,6.016 -7.175,16.26 -8.229,24.454 -1.345,0.066 -2.681,0.339 -3.982,0.868 -6.998,2.847 -9.317,11.448 -10.255,18.336 -0.606,1.03 -1.191,2.072 -1.759,3.123 -11.56,-0.665 -34.509,-1.268 -38.621,10.025 -0.835,2.292 -0.782,4.697 -0.136,7.026 l 0.532,1.924 1.782,0.9 c 11.358,5.736 25.555,9.988 38.203,13.473 l -0.266,1.337 4.544,0.801 c 39.188,6.905 77.13,20.492 112.947,37.648 l 3.609,1.73 2.149,-3.377 c 1.183,-1.86 1.959,-3.825 2.306,-5.856 8.705,1.48 18.009,2.762 26.543,2.731 5.525,-0.021 14.166,-0.569 16.56,-6.651 0.367,-0.935 0.545,-1.924 0.545,-2.928 l -0.003,-2.517 -2.142,-1.32 c -11.698,-7.212 -24.386,-12.404 -37.64,-15.886 -0.13,-3.003 -0.379,-6.514 -0.929,-9.739 2.427,-0.265 4.735,-1.109 6.594,-2.898 2.928,-2.82 3.594,-6.87 3.242,-11.008 C -29.945,5.564 -9.344,2.174 0,0 m -17.039,-154.698 -0.288,0.131 c 0.017,-0.078 0.036,-0.157 0.054,-0.237 0.078,0.035 0.157,0.071 0.234,0.106 m -113.486,259.653 c 0.081,0.107 0.166,0.211 0.255,0.311 20.83,23.39 41.008,19.193 57.389,-6.179 l 0.183,-0.281 0.137,-0.305 c 4.728,-10.439 9.405,-20.961 13.689,-31.593 l 1.556,-3.862 -3.724,-1.862 C -96.374,43.516 -133.51,30.077 -171.993,21.175 l -4.644,-1.074 -0.82,4.695 c -3.56,20.374 -12.118,73.178 16.182,81.257 5.567,1.589 13.126,1.76 18.83,1.236 4.066,-0.373 8.067,-1.141 11.92,-2.334"
             style="fill:#ffffff;fill-opacity:1;fill-rule:evenodd;stroke:none"
             id="path40"
             inkscape:connector-curvature="0" /></g><g
           id="g42"
           transform="translate(552.1953,941.6621)"><path
             d="m 0,0 c 5.383,1.5 26.258,4.175 42.538,-8.465 -4.28,6.849 -10.211,8.107 -9.4,9.018 C 51.146,20.775 67.887,18.902 83.364,-5.072 89.119,-17.778 93.658,-28.25 96.978,-36.491 61.712,-54.125 25.062,-67.341 -12.973,-76.139 -21.003,-30.183 -16.68,-4.798 0,0 m 77.957,-87.492 h 19.057 c 0.143,2.592 0.245,5.641 0.307,9.15 -5.262,-3.456 -11.717,-6.506 -19.364,-9.15 m 18.632,-7.345 H 95.06 c 0.18,-0.781 0.279,-1.61 0.279,-2.468 0,-12.126 -7.12,-18.604 -16.808,-18.604 h -17.69 c -3.39,0 -6.174,3.642 -6.27,8.141 -1.932,-1.475 -3.139,-3.272 -3.618,-5.39 -0.645,-2.854 0.03,-6.294 2.027,-10.319 11.104,-7.131 5.951,-14.109 -3.422,-12.706 0.532,1.73 3.174,0.81 5.349,1.628 -4.793,2.26 -6.884,1.672 -7.204,-2.35 0,0 -25.775,-8.364 0.831,-5.395 11.304,1.261 17.154,-6.166 17.154,-6.166 -8.292,1.012 -23.275,3.579 -27.469,-3.372 -0.702,-1.166 8.48,1.255 24.023,0.649 -0.404,-9.904 -10.859,-0.506 -16.627,-6.914 -12.832,-14.239 -26.033,-19.083 5.012,-21.545 6.564,0.261 29.995,0.816 36.064,25.315 -0.348,-2.06 -4.537,-17.502 -5.029,-19.286 -7.525,-27.188 -38.195,-19.632 -37.87,-20.227 10.601,-19.381 26.612,-17.65 31.645,-25.232 2.627,-3.958 5.64,-13.89 3.746,-22.659 -0.826,-3.815 -10.058,-25.224 -15.272,-31.01 -3.32,-3.682 -1.617,-126.011 -4.297,-130.968 -0.949,1.101 -6.56,129.853 -7.636,131.154 -32.902,39.779 -23.377,31.107 -21.641,42.796 0.208,1.404 -15.944,-3.669 -17.286,-38.35 -0.094,0.119 -10.762,29.772 -10.022,32.005 0.35,1.059 4.545,-11.201 8.288,-14.619 0.322,14.222 15.108,25.745 14.764,26.231 -8.86,12.514 -13.953,30.615 -15.273,54.3 -0.198,2.454 -0.124,5.04 0.221,7.758 -4.545,4.038 -7.531,13.331 -8.955,27.877 -7.687,-2.317 -12.307,2.909 -13.857,15.676 -1.197,1.988 -2.353,4.088 -3.47,6.303 -27.238,-1.701 -39.588,2.02 -37.054,11.161 8.616,4.353 22.419,9.103 41.415,14.256 l -0.187,0.939 c 36.628,6.454 74.666,19.127 114.113,38.023 1.775,-2.787 2.246,-5.735 1.414,-8.842 29.231,5.272 43.842,4.796 43.834,-1.433 -11.799,-7.276 -25.02,-12.67 -39.668,-16.179 -0.242,-9.371 -1.127,-15.443 -2.65,-18.219 11.246,2.43 14.266,-3.685 9.06,-18.348 -3.8,-17.976 -9.678,-24.221 -17.632,-18.735 0.785,-12.882 -0.113,-20.317 -2.697,-22.304 0.74,-11.083 0.839,-18.528 0.301,-22.336 9.974,-6.095 20.507,-14.378 31.592,-24.857 52.736,-17.626 82.257,-32.835 88.562,-45.632 4.175,-18.419 3.997,-34.669 -0.532,-48.745 9.501,-56.055 12.217,-98.479 8.145,-127.275 10.604,-24.627 15.617,-47.743 15.039,-69.342 0.542,-1.708 1.061,-3.496 1.563,-5.347 h -73.438 c -0.419,2.508 -0.831,5.012 -1.233,7.51 -1.441,22.018 -3.639,45.281 -6.592,69.794 -8.493,-15.681 -10.459,-41.45 -5.911,-77.304 H 60.194 c 1.099,10.921 5.256,21.33 12.476,31.226 42.124,67.075 83.756,177.39 92.243,218.825 -4.366,0.041 -16.353,-8.226 -18.749,-7.139 -3.169,9.186 -20.887,36.404 -25.205,41.454 7.213,-13.682 19.923,-48.345 17.756,-51.864 l 16.055,7.243 c -14.604,-49.586 -47.978,-150.753 -86.448,-208.929 -3.047,-5.164 -8.351,-9.693 -10.042,-14.962 -54.155,67.068 -76.085,129.114 -107.909,227.096 4.339,-1.325 24.381,-5.076 27.63,-5.316 -5.918,16.602 -3.637,37.936 4.135,57.428 -12.7,-16.274 -12.174,-38.422 -12.746,-50.722 0,0 -26.108,5.201 -29.172,5.848 20.995,-74.542 46.499,-148.24 117.104,-237.12 -1.384,-4.321 -2.314,-8.677 -2.786,-13.068 H -66.395 c 4.234,27.035 5.685,50.473 4.353,70.314 -2.961,4.161 -6.062,11.094 -9.307,20.799 -0.772,-10.501 -1.908,-89.012 -2.304,-91.113 h -73.893 c 8.768,55.692 13.008,112.28 23.475,144.87 -5.313,45.454 5.07,101.898 9.854,116.866 -1.844,3.484 6.551,7.431 25.185,11.845 44.973,13.874 73.946,27.538 86.919,40.993 3.836,5.256 8.143,8.933 12.921,11.027 -4.524,-5.635 -5.938,-15.188 -4.244,-28.659 -8.577,-35.771 -5.474,-172.75 50.726,-256.808 25.489,38.619 70.201,211.205 39.949,269.989 -3.11,6.048 -5.132,3.526 -3.709,10.328 1.165,23.083 -19.741,-12.94 -0.881,23.746 3.368,6.552 5.141,15.102 4.742,21.641 -1.195,13.39 1.958,-0.299 6.999,1.246 4.961,1.519 6.791,11.119 7.042,13.894 0.144,1.594 -8.416,-8.141 -11.378,-5.961 -1.556,1.145 5.645,7.197 5.428,10.153 -0.137,1.855 -8.002,0.96 -7.814,1.644 0.068,0.4 3.375,9.548 5.847,8.242 2.815,-1.488 3.885,-5.592 6.943,-10.875 1.923,5.401 -6.036,13.187 -4.346,13.916 3.691,1.591 8.805,-5.904 8.707,-4.735 -0.097,1.166 -3.427,7.53 -7.802,7.045 -2.525,-0.279 -6.816,-4.723 -8.664,-4.25 -1.398,0.358 -1.632,3.217 -1.764,4.805 m 58.31,-261.462 c -18.113,-1.467 -27.168,-2.199 -27.168,-2.199 5.055,15.361 13.852,26.43 26.39,33.208 0.771,-16.615 0.263,-26.125 -1.523,-28.523 4.082,0.709 6.122,1.066 6.122,1.066 -0.855,-10.652 -1.282,-15.977 -1.282,-15.977 -24.063,-1.862 -36.095,-2.795 -36.095,-2.795 22.501,4.181 33.751,6.273 33.751,6.273 -0.13,5.965 -0.195,8.947 -0.195,8.947 m -75.221,129.926 c 6.741,12.342 15.264,30.126 14.07,43.274 6.285,-15.895 -11.416,-40.61 -9.801,-42.707 5.673,-7.364 12.804,-13.78 14.248,-25.957 2.366,4.024 6.205,9.605 6.83,25.564 2.55,-12.526 -7.748,-39.768 -7.953,-40.135 -4.017,25.372 -16.756,41.126 -17.394,39.961"
             style="fill:#00000f;fill-opacity:1;fill-rule:evenodd;stroke:none"
             id="path44"
             inkscape:connector-curvature="0" /></g><g
           id="g46"
           transform="translate(599.2056,798.1401)"><path
             d="m 0,0 27.568,-14.069 c 1.747,-0.892 2.446,-3.05 1.554,-4.796 -0.892,-1.747 -3.055,-2.455 -4.795,-1.555 L -6.389,-4.553 c -1.741,0.901 0.702,1.251 1.594,2.998 C -3.904,0.191 -1.747,0.892 0,0"
             style="fill:#00000c;fill-opacity:1;fill-rule:evenodd;stroke:none"
             id="path48"
             inkscape:connector-curvature="0" /></g><g
           id="g50"
           transform="translate(626.5068,777.749)"><path
             d="M 0,0 C 11.328,27.781 34.224,10.789 46.053,15.298 57.305,19.584 61.214,28.042 57.781,40.671 52.963,58.386 68.274,61.631 82.69,58.273 68.885,56.13 63.137,49.42 65.445,38.144 68.07,20.755 54.757,0.929 37.133,6.053 26.556,9.127 11.344,17.67 0,0"
             style="fill:#00000c;fill-opacity:1;fill-rule:evenodd;stroke:none"
             id="path52"
             inkscape:connector-curvature="0" /></g><g
           id="g54"
           transform="translate(669.3945,795.4258)"><path
             d="M 0,0 C 7.574,0.615 12.228,10.804 9.328,22.642 6.578,32.197 9.505,38.983 18.107,43.003 8.492,43.724 -0.952,38.504 4.133,23.677 7.661,13.385 6.283,5.493 0,0"
             style="fill:#00000c;fill-opacity:1;fill-rule:evenodd;stroke:none"
             id="path56"
             inkscape:connector-curvature="0" /></g><g
           id="g58"
           transform="translate(723.1289,849.5986)"><path
             d="m 0,0 c 3.904,-6.52 -1.678,-16.231 -12.994,-20.757 -9.372,-3.319 -13.191,-9.647 -11.458,-18.984 -6.179,7.403 -7.424,18.122 7.595,22.608 C -6.434,-14.017 -0.814,-8.307 0,0"
             style="fill:#00000c;fill-opacity:1;fill-rule:evenodd;stroke:none"
             id="path60"
             inkscape:connector-curvature="0" /></g><path
           d="M 364.929,451.707 H 835.062 V 396.828 H 364.929 Z"
           style="fill:#00000f;fill-opacity:1;fill-rule:evenodd;stroke:none"
           id="path62"
           inkscape:connector-curvature="0" /><g
           id="g64"
           transform="translate(599.9956,437.2822)"><path
             d="M 0,0 -122.649,2.247 -245.292,4.494 V 0 -4.495 l 122.643,2.248 z"
             style="fill:#ffffff;fill-opacity:1;fill-rule:evenodd;stroke:none"
             id="path66"
             inkscape:connector-curvature="0" /></g><g
           id="g68"
           transform="translate(599.9956,428.292)"><path
             d="M 0,0 -122.649,2.248 -245.292,4.495 V 0 -4.495 l 122.643,2.247 z"
             style="fill:#ffffff;fill-opacity:1;fill-rule:evenodd;stroke:none"
             id="path70"
             inkscape:connector-curvature="0" /></g><g
           id="g72"
           transform="translate(599.9956,419.3018)"><path
             d="M 0,0 -122.649,2.248 -245.292,4.495 V 0 -4.494 l 122.643,2.247 z"
             style="fill:#ffffff;fill-opacity:1;fill-rule:evenodd;stroke:none"
             id="path74"
             inkscape:connector-curvature="0" /></g><g
           id="g76"
           transform="translate(599.9956,410.3125)"><path
             d="M 0,0 -122.649,2.247 -245.292,4.495 V 0 -4.495 l 122.643,2.248 z"
             style="fill:#ffffff;fill-opacity:1;fill-rule:evenodd;stroke:none"
             id="path78"
             inkscape:connector-curvature="0" /></g><g
           id="g80"
           transform="translate(599.9956,401.3232)"><path
             d="M 0,0 -122.649,2.247 -245.292,4.494 V 0 -4.495 l 122.643,2.248 z"
             style="fill:#ffffff;fill-opacity:1;fill-rule:evenodd;stroke:none"
             id="path82"
             inkscape:connector-curvature="0" /></g><g
           id="g84"
           transform="translate(599.9941,437.2822)"><path
             d="M 0,0 122.648,2.247 245.291,4.494 V 0 -4.495 l -122.643,2.248 z"
             style="fill:#ffffff;fill-opacity:1;fill-rule:evenodd;stroke:none"
             id="path86"
             inkscape:connector-curvature="0" /></g><g
           id="g88"
           transform="translate(599.9941,428.292)"><path
             d="M 0,0 122.648,2.248 245.291,4.495 V 0 -4.495 l -122.643,2.247 z"
             style="fill:#ffffff;fill-opacity:1;fill-rule:evenodd;stroke:none"
             id="path90"
             inkscape:connector-curvature="0" /></g><g
           id="g92"
           transform="translate(599.9941,419.3018)"><path
             d="M 0,0 122.648,2.248 245.291,4.495 V 0 -4.494 l -122.643,2.247 z"
             style="fill:#ffffff;fill-opacity:1;fill-rule:evenodd;stroke:none"
             id="path94"
             inkscape:connector-curvature="0" /></g><g
           id="g96"
           transform="translate(599.9941,410.3125)"><path
             d="M 0,0 122.648,2.247 245.291,4.495 V 0 -4.495 l -122.643,2.248 z"
             style="fill:#ffffff;fill-opacity:1;fill-rule:evenodd;stroke:none"
             id="path98"
             inkscape:connector-curvature="0" /></g><g
           id="g100"
           transform="translate(599.9941,401.3232)"><path
             d="M 0,0 122.648,2.247 245.291,4.494 V 0 -4.495 l -122.643,2.248 z"
             style="fill:#ffffff;fill-opacity:1;fill-rule:evenodd;stroke:none"
             id="path102"
             inkscape:connector-curvature="0" /></g><g
           id="g104"
           transform="translate(344.4785,358.1904)"><path
             d="m 0,0 h 37.454 v -9.819 h 0.539 C 50.717,-3.264 57.813,0 59.22,0 h 27.094 v -9.371 h 0.51 C 99.248,-3.113 105.955,0 107.002,0 h 27.185 v -112.003 c 0,-1.287 2.964,-5.539 8.863,-12.813 v -0.958 h -37.544 v 0.958 c 0,21.645 0.179,53.711 0.539,96.224 h -0.539 c -12.664,-6.078 -19.071,-9.371 -19.192,-9.91 v -54.189 c 0,-5.091 -0.179,-12.006 -0.539,-20.719 6.258,-7.006 9.402,-11.138 9.402,-12.364 H 57.723 v 96.224 l -0.539,0.958 c -12.874,-6.258 -19.431,-9.7 -19.73,-10.329 v -74.489 l 8.951,-11.406 v -0.958 H 8.862 v 113.41 C 2.963,-5 0,-0.868 0,0 m 152.36,0 h 37.455 v -12.784 h 0.449 C 207.33,-4.251 216.7,0 218.407,0 h 26.586 v -113.319 c 5.898,-7.306 8.862,-11.408 8.862,-12.277 H 216.4 v 41.407 c 0,0.628 -0.328,0.959 -0.987,0.959 h -24.64 c -0.628,-0.122 -0.958,-0.45 -0.958,-0.959 v -29.13 l 8.862,-11.318 v -0.959 h -37.454 v 67.993 c 0,10.089 0.18,25.208 0.538,45.329 C 155.504,-5.209 152.36,-1.107 152.36,0 m 37.455,-42.364 v -16.227 c 0.12,-0.629 0.449,-0.958 0.958,-0.958 h 24.64 c 0.659,0 0.987,0.329 0.987,0.958 v 29.58 h -0.538 c -0.928,0 -9.461,-4.132 -25.598,-12.365 z M 263.495,0 h 83.232 v -31.467 c -0.989,0 -8.534,3.594 -22.634,10.78 h -22.186 c -0.659,-0.121 -0.958,-0.45 -0.958,-0.959 v -2.994 c 0,-4.73 -0.179,-12.095 -0.538,-22.095 l 0.957,-0.539 h 32.035 v -22.634 h -32.035 c -0.629,-0.119 -0.957,-0.449 -0.957,-1.048 v -41.825 l 9.401,-12.276 v -0.539 h -37.455 v 111.825 c 0,1.167 -2.963,5.448 -8.862,12.813 z m 90.866,0 h 37.454 v -111.823 c 0,-1.287 2.935,-5.569 8.862,-12.814 v -0.959 h -37.453 c 0.329,24.431 0.508,43.652 0.508,57.633 v 55.179 l -9.371,12.275 z m 55.179,0 h 37.454 v -12.784 h 0.449 C 464.509,-4.251 473.879,0 475.586,0 h 26.586 v -113.319 c 5.898,-7.306 8.861,-11.408 8.861,-12.277 h -37.454 v 41.407 c 0,0.628 -0.328,0.959 -0.987,0.959 h -24.64 c -0.629,-0.122 -0.958,-0.45 -0.958,-0.959 v -29.13 l 8.861,-11.318 v -0.959 h -37.454 v 67.993 c 0,10.089 0.181,25.208 0.539,45.329 -6.256,7.065 -9.4,11.167 -9.4,12.274 m 37.454,-42.364 v -16.227 c 0.119,-0.629 0.449,-0.958 0.958,-0.958 h 24.64 c 0.659,0 0.987,0.329 0.987,0.958 v 29.58 h -0.538 c -0.929,0 -9.461,-4.132 -25.598,-12.365 z"
             style="fill:#00000f;fill-opacity:1;fill-rule:nonzero;stroke:none"
             id="path106"
             inkscape:connector-curvature="0" /></g></g></g></g></svg>